<?xml version="1.0" encoding="UTF-8"?>
<svg width="1680px" height="325px" viewBox="0 0 1680 325" version="1.1" xmlns="http://www.w3.org/2000/svg" xmlns:xlink="http://www.w3.org/1999/xlink">
    <!-- Generator: Sketch 49.1 (51147) - http://www.bohemiancoding.com/sketch -->
    <title>Group 2</title>
    <desc>Created with Sketch.</desc>
    <defs></defs>
    <g id="Page-1" stroke="none" stroke-width="1" fill="none" fill-rule="evenodd">
        <g id="Group-2" transform="translate(0.000000, 2.000000)">
            <g id="graph-copy" opacity="0.718127264">
                <path d="M0.967102752,0.350878233 C0.967102752,0.350878233 23.8951606,0.451958742 52.340223,4.70953069 C65.7152534,6.71146528 79.6970332,10.3554488 91.7922608,13.9726172 C124.932694,23.8835119 157.946151,40.8880938 189.152005,63.840805 C217.744676,84.8714531 246.480322,106.143446 264.776764,130.986788 C270.415035,138.642566 279.351257,143.281517 284.865308,151.039583 C289.189898,157.124121 298.172538,162.754812 301.336274,167.681398 C303.424306,170.932892 308.311788,172.99788 310.368739,174.585155 C311.367287,175.355698 307.527528,176.69759 310.368739,176.69759 C313.062232,176.69759 313.050388,179.082276 314.652582,180.513076 C318.508891,183.956859 322.214189,189.108611 326.751152,194.523432 C337.262696,207.068855 352.774671,221.421834 370.001378,236.57377 C413.544455,274.872554 478.085787,308.502673 515.960639,307.801477 C543.907876,307.284076 588.705288,301.92899 626.983873,284.341793 C662.995418,267.796193 692.443101,239.771379 721.198325,214.936138 C741.784908,197.155969 758.336694,175.635739 776.108105,158.963518 C797.307492,139.075346 819.190647,124.581212 837.262553,110.868555 C846.297066,104.013319 861.241279,99.5722785 868.869622,94.7461574 C872.168108,92.6593489 874.188827,93.2274143 877.068287,92.3615917 C878.540533,91.9189035 880.042432,89.6470269 882.457677,89.4640476 C897.316507,88.338341 912.311358,83.8499156 927.072284,82.7484268 C974.207548,79.2311023 1021.52269,97.6758685 1064.91741,127.093201 C1107.9677,156.277038 1147.11002,196.286673 1190.72582,229.710913 C1251.82742,276.535111 1319.58633,311.494048 1378.79723,307.801477 C1400.73028,306.433665 1424.99911,303.509464 1440.93687,293.814783 C1449.16229,288.81139 1460.34638,284.718108 1467.61801,278.821716 C1469.8459,277.015169 1471.29427,274.122935 1474.58821,273.07002 C1479.77243,271.412873 1482.74515,267.542245 1486.54811,263.679055 C1492.87884,257.24806 1499.30958,249.334663 1505.92328,240.657696 C1528.00019,211.69346 1550.16784,174.111528 1572.97322,160.256375 C1576.70847,157.987061 1578.11718,155.257789 1580.42119,153.120667 C1583.48118,150.282315 1587.04842,148.168889 1589.28924,146.448403 C1598.45775,139.408874 1601.43148,137.927814 1618.71028,127.093201 C1628.71613,120.819066 1679.23509,116.640997 1679.23509,116.640997 L1679.23509,233.753782 L1679.23509,320.496536 L0.967102752,324.306557 L0.967102752,0.350878233 Z" id="Rectangle" fill="#FFFFFF"></path>
                <path d="M2.99949473,0.115151415 C262.459992,1.57657764 332.198203,307.044846 526.346281,307.044846 C720.959893,307.044846 767.230681,82.2351448 938.328481,82.2351448 C1109.42628,82.2351448 1182.01596,307.044846 1381.86532,307.044846 C1505.16914,307.044846 1515.82389,186.073404 1609.09392,133.034525 C1626.13167,123.345844 1649.99656,118.677141 1677.04894,116.913005" id="COMMENTS_GRAPH" stroke="#FFFFFF" stroke-width="4" stroke-linecap="round" stroke-linejoin="round"></path>
            </g>
            <g id="graph-copy-2" opacity="0.542572464" transform="translate(0.000000, 80.000000)">
                <path d="M1.05403254,0.277409158 C1.05403254,0.277409158 14.5556996,3.69307326 20.401865,5.48600397 C45.2571901,13.108757 70.0172827,26.1874681 93.4216729,43.8410559 C114.866176,60.0163298 136.417911,76.3772291 150.140242,95.4849553 C154.368945,101.373233 161.071112,104.941183 165.20665,110.908134 C168.450093,115.587927 175.187073,119.918652 177.559875,123.707831 C179.125899,126.208648 182.79151,127.796889 184.334224,129.017708 C185.083135,129.610355 182.203316,130.642442 184.334224,130.642442 C191.216554,130.642442 191.80457,138.457795 196.621034,144.352808 C204.504691,154.001853 216.138672,165.04114 229.058703,176.694928 C261.716011,206.15162 310.12201,232.017508 338.528149,231.478198 C359.488576,231.08025 393.086636,226.9615 421.795574,213.434683 C448.804233,200.708988 470.889996,179.154301 492.456413,160.052805 C507.89635,146.377567 520.31019,129.825742 533.638748,117.002659 C549.538289,101.706097 565.950655,90.5582427 579.504584,80.0114458 C586.280469,74.7388875 597.488628,71.3231558 603.209886,67.6112478 C605.738562,65.9706624 608.754937,66.5903244 611.001517,65.9282283 C612.07658,65.6113931 611.667989,63.6832619 613.400928,63.5486258 C624.545049,62.6828126 635.791188,59.2306361 646.861882,58.3834495 C682.21333,55.6781745 717.699686,69.8645725 750.24573,92.4902854 C782.533445,114.936411 811.890183,145.708967 844.602031,171.416508 C890.428236,207.43034 941.247415,234.31826 985.655588,231.478198 C1013.19614,229.71688 1043.36576,225.623587 1069.52321,217.049048 C1101.48978,206.57025 1128.76128,190.292496 1154.06728,174.525994 C1175.81275,160.977827 1199.06384,148.00826 1217.57496,136.104884 C1225.07935,131.279267 1233.32732,127.758087 1240.05035,123.707831 C1243.41549,121.680523 1247.10776,118.177641 1252.0838,117.002659 C1272.14346,112.266011 1288.33499,100.045854 1307.72743,95.4849553 C1352.2829,85.005975 1415.50917,90.7448639 1471.26129,112.67285 C1476.28088,114.647115 1481.21833,115.257327 1486.48267,117.002659 C1502.8913,122.442755 1517.86468,129.041889 1532.02381,136.104884 C1548.42094,144.284258 1567.15773,148.678699 1580.28551,154.566771 C1587.89694,157.98065 1594.95001,160.802992 1600.56182,162.885474 C1603.91011,164.127985 1605.73458,165.96951 1609.65332,165.131476 C1612.50555,164.521519 1615.68287,169.987326 1618.2504,171.416508 C1622.16556,173.59583 1625.42668,172.533474 1629.95915,174.525994 C1643.11849,180.310969 1662.19305,184.204989 1679.03998,190.31407 C1679.50616,190.483119 1679.03998,244.409507 1679.03998,244.409507 L0.982899474,244.409507 L1.05403254,0.277409158 Z" id="Rectangle" fill="#FFFFFF"></path>
                <path d="M3.01379642,0.460286265 C158.561674,36.2985056 213.797597,230.896251 346.31738,230.896251 C492.277589,230.896251 526.98068,57.9886696 655.304031,57.9886696 C783.627381,57.9886696 838.069638,230.896251 987.956657,230.896251 C1137.84368,230.896251 1216.47749,91.0023881 1358.92384,91.0023881 C1463.50015,91.0023881 1560.35756,155.616216 1677.19429,189.984691" id="COMMENTS_GRAPH" stroke="#FFFFFF" stroke-width="4" stroke-linecap="round" stroke-linejoin="round"></path>
            </g>
            <g id="graph" transform="translate(0.998811, 137.000000)">
                <path d="M0.0801375177,1.1687101 C0.0801375177,1.1687101 45.4946204,2.09704948 85.2645512,8.6855225 C120.115031,14.4590162 154.831982,24.3648672 187.648058,37.7357422 C217.716111,49.9869382 247.934516,62.3787274 267.175055,76.8509707 C273.10426,81.3107682 282.501591,84.0131434 288.300167,88.5325279 C292.847907,92.0770157 302.294051,95.3571187 305.621036,98.2270529 C307.81681,100.121179 312.956486,101.324117 315.119576,102.248768 C316.169649,102.69764 312.131759,103.479346 315.119576,103.479346 C324.769521,103.479346 325.593998,109.398715 332.347321,113.863614 C343.401261,121.171826 359.713653,129.533012 377.829258,138.359623 C423.619159,160.670201 491.490823,180.261094 531.320018,179.852619 C560.709332,179.551212 607.818291,176.43166 648.07205,166.186412 C685.941791,156.547937 716.908975,140.222358 747.147968,125.754834 C768.796819,115.397172 786.202677,102.860775 804.891093,93.1485376 C827.184369,81.5628802 850.196694,73.1194653 869.20111,65.131293 C878.701805,61.1378431 894.417138,58.5507587 902.439104,55.7393496 C907.681305,53.9021479 909.220874,52.9773788 916.728303,52.6623087 C932.353848,52.0065395 948.122434,49.3918517 963.645024,48.7501902 C1013.21247,46.7012076 1062.96907,57.4460238 1108.60296,74.5827997 C1153.87464,91.5835555 1195.0367,114.890773 1240.90308,134.361733 C1305.15753,161.638707 1376.41279,182.00369 1438.67897,179.852619 C1477.2945,178.518592 1519.59633,175.418321 1556.27256,168.923942 C1601.09396,160.987272 1678.23337,136.247332 1678.23337,136.247332 L1678.23337,187.248 C1678.23337,187.248 1487.36142,187.248 1421.17044,187.248 L0.0801375177,187.248 L0.0801375177,1.1687101 Z" id="Rectangle" fill="#FFFFFF"></path>
                <path d="M2.06885731,0.736070605 C266.675634,6.07969276 340.740525,179.411851 542.241559,179.411851 C746.897233,179.411851 795.555594,48.4511829 975.482041,48.4511829 C1155.40849,48.4511829 1231.74379,179.411851 1441.90538,179.411851 C1534.07078,179.411851 1606.50433,159.321444 1676.21397,136.439164" id="COMMENTS_GRAPH" stroke="#FFFFFF" stroke-width="4" stroke-linecap="round" stroke-linejoin="round"></path>
            </g>
        </g>
    </g>
</svg>