<?xml version="1.0" encoding="UTF-8"?>
<svg width="212px" height="27px" viewBox="0 0 212 27" version="1.1" xmlns="http://www.w3.org/2000/svg" xmlns:xlink="http://www.w3.org/1999/xlink">
    <!-- Generator: Sketch 49.3 (51167) - http://www.bohemiancoding.com/sketch -->
    <title>Slice 2</title>
    <desc>Created with Sketch.</desc>
    <defs></defs>
    <g id="Page-1" stroke="none" stroke-width="1" fill="none" fill-rule="evenodd">
        <text id="DÉPENSER-Copy-9" font-family="HelveticaNeue-Medium, Helvetica Neue" font-size="8" font-weight="400" fill="#FFFFFF">
            <tspan x="156" y="16">DÉPENSER </tspan>
        </text>
        <rect id="Rectangle-3-Copy-10" stroke="#FFFFFF" stroke-width="0.5" x="145.25" y="2.25" width="63.5" height="21.5" rx="3"></rect>
        <text id="0€" font-family="HelveticaNeue-Medium, Helvetica Neue" font-size="17" font-weight="400" fill="#FFFFFF">
            <tspan x="27" y="20">0€</tspan>
        </text>
        <text id="€" fill="#D8D8D8" font-family="HelveticaNeue-Medium, Helvetica Neue" font-size="50" font-weight="400">
            <tspan x="70" y="70">€</tspan>
        </text>
        <path d="M14.7825068,7.68284455 C20.7876794,10.2235747 29.5576205,25.7574275 12.043511,24.4433074 C-0.614205548,23.4936101 6.64135894,10.4048745 11.803377,7.79760027 C10.0731607,6.64528268 8.96725334,4.00022917 9.6113722,3.27290276 C10.4035728,2.37835508 11.8149082,3.98321332 13.1107348,3.82242364 C14.0243575,3.68325827 15.914581,2.89338847 16.7850359,3.07352356 C17.4401438,3.20904267 16.3756304,6.30749775 14.7825068,7.68284455 Z M16.3169208,19.2457387 C16.2257914,19.0237225 16.1329745,18.8017064 16.0317197,18.5830542 C15.942278,18.3879491 15.8275225,18.3307632 15.6131998,18.3795394 C15.3414994,18.4417712 15.0748617,18.5241863 14.8031613,18.5796903 C14.2783239,18.6890164 13.7517989,18.6991081 13.2337118,18.5359599 C12.5839934,18.3324451 12.2380395,17.8631838 12.0254044,17.2576853 L13.7872381,17.2576853 C13.9256196,17.2576853 14.0369999,17.1466773 14.0369999,17.0087582 L14.0369999,16.4553999 C14.0369999,16.3174808 13.9256196,16.2064727 13.7872381,16.2064727 L11.8566463,16.2064727 C11.8566463,16.0517342 11.8549588,15.9037235 11.8566463,15.7557127 L13.7872381,15.7557127 C13.9256196,15.7557127 14.0369999,15.6447047 14.0369999,15.5067856 L14.0369999,14.9534273 C14.0369999,14.8155082 13.9256196,14.7045001 13.7872381,14.7045001 L12.0996579,14.7045001 C12.0996579,14.6977723 12.0996579,14.6910446 12.103033,14.6876807 C12.3055427,14.228511 12.6008692,13.8601661 13.0852047,13.6684249 C13.6488565,13.4464088 14.2243213,13.4514546 14.8048489,13.5708724 C15.0799245,13.6263764 15.3499373,13.7104734 15.6250129,13.7727052 C15.8258349,13.8181176 15.942278,13.7592497 16.0283446,13.5725543 C16.1279118,13.357266 16.2190411,13.1386138 16.3101704,12.9182796 C16.396237,12.711401 16.3456096,12.5650722 16.1498503,12.4507002 C16.1009105,12.4221072 16.0502831,12.3985601 15.9979681,12.3783768 C15.1845545,12.062172 14.3458271,11.9444362 13.4800985,12.0823553 C12.870882,12.1799079 12.3021675,12.3884684 11.8110817,12.7685869 C11.1917397,13.2462579 10.7900957,13.8769855 10.5572096,14.6187211 L10.5285207,14.7045001 L9.66110452,14.7045001 C9.52272295,14.7045001 9.41134266,14.8155082 9.41134266,14.9534273 L9.41134266,15.5067856 C9.41134266,15.6447047 9.52272295,15.7557127 9.66110452,15.7557127 L10.3445745,15.7557127 C10.3445745,15.9070873 10.3445745,16.0534161 10.3445745,16.2064727 L9.66110452,16.2064727 C9.52272295,16.2064727 9.41134266,16.3174808 9.41134266,16.4553999 L9.41134266,17.0087582 C9.41134266,17.1466773 9.52272295,17.2576853 9.66110452,17.2576853 L10.4846437,17.2576853 C10.5470841,17.4595182 10.5993991,17.6647149 10.6787154,17.858138 C11.0955477,18.8605743 11.7942059,19.573717 12.8455683,19.9134689 C13.7146721,20.1943529 14.5905262,20.1859432 15.4663804,19.9454258 C15.6942037,19.883194 15.9203394,19.8024609 16.1363497,19.7032264 C16.3456096,19.6073558 16.3996122,19.4458895 16.3169208,19.2457387 Z" id="Combined-Shape" fill="#FFFFFF" fill-rule="nonzero"></path>
    </g>
</svg>