<?xml version="1.0" encoding="UTF-8"?>
<svg width="212px" height="27px" viewBox="0 0 212 27" version="1.1" xmlns="http://www.w3.org/2000/svg" xmlns:xlink="http://www.w3.org/1999/xlink">
    <!-- Generator: Sketch 49.3 (51167) - http://www.bohemiancoding.com/sketch -->
    <title>Slice 2</title>
    <desc>Created with Sketch.</desc>
    <defs></defs>
    <g id="Page-1" stroke="none" stroke-width="1" fill="none" fill-rule="evenodd">
        <text id="SPEND" font-family="HelveticaNeue-Medium, Helvetica Neue" font-size="8" font-weight="400" fill="#FFFFFF">
            <tspan x="162" y="16">SPEND </tspan>
        </text>
        <rect id="Rectangle-3-Copy-10" stroke="#FFFFFF" stroke-width="0.5" x="145.25" y="2.25" width="63.5" height="21.5" rx="3"></rect>
        <text id="$0-copy" font-family="HelveticaNeue-Medium, Helvetica Neue" font-size="17" font-weight="400" fill="#FFFFFF">
            <tspan x="27" y="21">$0</tspan>
        </text>
        <g id="money-bag-with-dollar-symbol" transform="translate(5.000000, 3.000000)" fill="#FFFFFF" fill-rule="nonzero">
            <path d="M9.86127508,14.4837963 C9.79305229,14.3923611 9.70673134,14.3239689 9.61753015,14.2669928 C9.423308,14.143045 9.2109017,14.0678662 9,14 L9,16 C9.34231762,15.9526515 9.73531871,15.8006103 9.91505373,15.4095118 C10.0008588,15.2226957 10.0179253,14.9931608 9.98297559,14.7851957 C9.96401766,14.6725063 9.92485511,14.5690762 9.86127508,14.4837963 Z" id="Shape"></path>
            <path d="M10,15.01825 C10.004,15.0115 10.00625,15.00725 10.0105,15 C10.007,15.006 10.0035,15.012 10,15.01825 Z" id="Shape"></path>
            <path d="M8.13506968,11.5480233 C8.06306229,11.6642442 8.01788015,11.7962791 8.00541429,11.9366279 C7.99294844,12.0772674 7.99994405,12.2337209 8.0482821,12.3661047 C8.09430582,12.4922674 8.19071893,12.585407 8.29023536,12.660407 C8.40190205,12.7443605 8.52471963,12.8099419 8.64979895,12.8655233 C8.75473303,12.9122093 8.87276414,12.9568605 9,13 L9,11 C8.67857035,11.075814 8.32736993,11.2376744 8.13506968,11.5480233 Z" id="Shape"></path>
            <path d="M10.03925,15 C10.02675,15.02225 10.01325,15.0455 10,15.07 C10.0155,15.0415 10.02775,15.0205 10.03925,15 Z" id="Shape"></path>
            <path d="M10,15.0046894 C10.00325,14.9986894 10.00375,14.9981894 10,15.0046894 Z" id="Shape"></path>
            <path d="M10.1368125,4.78683844 C11.7876363,3.38094874 12.8907047,0.213684966 12.2118698,0.0751563252 C11.3098886,-0.108979092 9.35120442,0.698431676 8.40449177,0.840687546 C7.06173254,1.00504795 5.59928106,-0.635450049 4.77838825,0.278963224 C4.11094051,1.02244168 5.25690197,3.726235 7.04978374,4.90414259 C1.70080617,7.56931768 -5.81754252,20.9487203 7.29861496,21.9195079 C25.4470557,23.2628112 16.3594823,7.38399163 10.1368125,4.78683844 Z M11.6954161,15.3384656 C11.639604,15.8600705 11.3669262,16.3317719 10.9593394,16.6520029 C10.5289783,16.9901453 9.98918867,17.1474136 9.45287135,17.1914674 L9.45287135,17.76779 C9.45287135,17.9220041 9.38643806,18.071145 9.27256702,18.1732296 C9.11605816,18.3136219 8.88606928,18.348254 8.69611399,18.2595253 C8.50855867,18.172039 8.38534305,17.9770325 8.38534305,17.76779 L8.38534305,17.1378885 C8.29337813,17.1201842 8.20207704,17.099115 8.11184828,17.074008 C7.61061142,16.9343922 7.14568052,16.6622528 6.80605885,16.2596086 C6.6368863,16.0589078 6.49896446,15.8311845 6.40357831,15.5853427 C6.37865945,15.5210998 6.35644693,15.4556663 6.33699183,15.389508 C6.31937501,15.3296135 6.30119649,15.2687354 6.29491572,15.2063044 C6.28434562,15.1015796 6.30482199,14.9947324 6.35297463,14.9014482 C6.45193521,14.7095477 6.66047752,14.5936412 6.87341128,14.6128986 C7.08297485,14.6317418 7.26664936,14.7791744 7.33262308,14.9816871 C7.35294626,15.0440664 7.36673333,15.1079987 7.38955861,15.169705 C7.41217963,15.2309972 7.43949847,15.2905811 7.47161725,15.3473178 C7.53503781,15.4590311 7.61449222,15.5620476 7.70599757,15.6514493 C7.89462521,15.8356882 8.13487781,15.9554254 8.38534305,16.0266569 L8.38534305,13.8854679 C7.89559542,13.7569303 7.39006924,13.5909134 6.9856483,13.2721318 C6.78910585,13.1171413 6.62233327,12.9245678 6.51310898,12.6966375 C6.39785923,12.456076 6.35011509,12.1880779 6.34817469,11.9218917 C6.34618322,11.6516159 6.39683796,11.3837214 6.50805372,11.1374655 C6.61222275,10.9068951 6.76219552,10.6998786 6.94607428,10.5282708 C7.33926131,10.1613977 7.86153623,9.95676253 8.38539411,9.88159676 L8.38539411,9.83448874 L8.38539411,9.2833249 C8.38539411,9.12916261 8.4518274,8.97996995 8.56569845,8.87788532 C8.72225837,8.73754483 8.95214512,8.7028609 9.14215148,8.79158964 C9.32965573,8.87912773 9.45292242,9.07408246 9.45292242,9.2833249 L9.45292242,9.83448874 L9.45292242,9.87833544 C9.52272588,9.88723937 9.59232509,9.89790339 9.66156686,9.91063808 C10.175978,10.0050094 10.6791042,10.2203604 11.0552872,10.5963445 C11.2334979,10.7744232 11.3793857,10.9866163 11.4819717,11.2180151 C11.5106182,11.2825686 11.5356903,11.3486234 11.5573921,11.4159723 C11.5776132,11.4787657 11.5979364,11.5434228 11.6075873,11.6089599 C11.6230084,11.7135811 11.6072809,11.8216707 11.5631112,11.917388 C11.4726271,12.1134816 11.2697018,12.2383437 11.0562063,12.2290774 C10.8464385,12.2198111 10.6563811,12.0813343 10.5812671,11.8825488 C10.5589014,11.8234308 10.5477185,11.7608444 10.5248932,11.7018817 C10.5018637,11.6421943 10.4720428,11.5852506 10.4376772,11.5314646 C10.3708865,11.4268951 10.2843343,11.3372346 10.1855269,11.263363 C9.97157185,11.1031957 9.71206841,11.0197473 9.45276923,10.9731051 L9.45276923,13.0221487 C9.76093594,13.0969521 10.069358,13.178537 10.3646057,13.2965659 C10.8108474,13.4749552 11.2337022,13.7484923 11.4772739,14.1798154 C11.4394871,14.1126218 11.4027216,14.0471364 11.4785505,14.1820414 C11.5530007,14.314565 11.5174607,14.2514092 11.4800824,14.1849921 C11.6738674,14.5312102 11.7375433,14.9451913 11.6954161,15.3384656 Z" id="Shape"></path>
            <path d="M10.039,15 C10.02375,15.02725 10.0105,15.05125 10,15.0695 C10.009,15.05375 10.0225,15.03 10.039,15 Z" id="Shape"></path>
        </g>
    </g>
</svg>