<?xml version="1.0" encoding="UTF-8"?>
<svg width="44px" height="34px" viewBox="0 0 44 34" version="1.1" xmlns="http://www.w3.org/2000/svg" xmlns:xlink="http://www.w3.org/1999/xlink">
    <!-- Generator: Sketch 49.2 (51160) - http://www.bohemiancoding.com/sketch -->
    <title>code copy</title>
    <desc>Created with Sketch.</desc>
    <defs></defs>
    <g id="Dashboard" stroke="none" stroke-width="1" fill="none" fill-rule="evenodd">
        <g id="code-copy" fill="#FFFFFF" fill-rule="nonzero">
            <path d="M27.434564,0.458609043 L25.9433629,0.0376188454 C25.7514253,-0.0282963895 25.5623512,-0.00756778272 25.3784987,0.0996312046 C25.1940567,0.206916923 25.0694952,0.367975595 25.0054879,0.582547031 L16.0365526,32.5503952 C15.9725453,32.7650534 15.9925897,32.9674825 16.09677,33.1570756 C16.2009502,33.3470155 16.3570101,33.4749431 16.5657075,33.5408583 L18.0564875,33.962022 C18.2488462,34.0284576 18.4372466,34.0076423 18.6216044,33.9002698 C18.8060464,33.7924637 18.9303552,33.6319254 18.9942783,33.4177009 L27.9634662,1.44933237 C28.0273893,1.23476093 28.0075134,1.03233178 27.9031647,0.842305095 C27.7989002,0.652365142 27.6430088,0.524437548 27.434564,0.458609043 Z" id="Shape"></path>
            <path d="M15,7.07944352 C15,6.86237418 14.9139721,6.67013533 14.7421871,6.50325341 L13.4533933,5.25067384 C13.2816083,5.08370418 13.0839156,5 12.860586,5 C12.6372565,5 12.4394735,5.08379192 12.2677788,5.25067384 L0.257812923,16.9239854 C0.0857570998,17.090955 0,17.2831061 0,17.5001755 C0,17.7172448 0.0860279117,17.9093959 0.257812923,18.0762778 L12.2676885,29.7495894 C12.4393833,29.9168223 12.6368051,30 12.8604958,30 C13.0841864,30 13.2816083,29.916559 13.453303,29.7495894 L14.7420968,28.4977117 C14.9138818,28.3308298 14.9999097,28.138591 14.9999097,27.9212584 C14.9999097,27.7044523 14.9138818,27.5123012 14.7420968,27.3454193 L4.61346116,17.5001755 L14.7421871,7.65563362 C14.9142429,7.4887517 15,7.29651285 15,7.07944352 Z" id="Shape"></path>
            <path d="M43.7595272,16.9238598 L32.5492308,5.25067121 C32.3889718,5.08379104 32.2043622,5 31.9962445,5 C31.7874528,5 31.6035172,5.08379104 31.4426683,5.25067121 L30.24022,6.50314984 C30.079961,6.67011775 30,6.86200361 30,7.07933388 C30,7.29666415 30.0798767,7.48863776 30.24022,7.65551793 L39.6944919,17.5002193 L30.24022,27.3454472 C30.079961,27.5123274 30,27.7045642 30,27.9212803 C30,28.1386983 30.0798767,28.3308474 30.24022,28.4977276 L31.4426683,29.749592 C31.6035172,29.9168231 31.787537,30 31.9962445,30 C32.2044464,30 32.3889718,29.9165599 32.5492308,29.749592 L43.7595272,18.0764911 C43.9198705,17.909611 44,17.7171109 44,17.5000439 C44,17.2828891 43.9198705,17.09074 43.7595272,16.9238598 Z" id="Shape"></path>
        </g>
    </g>
</svg>