<?xml version="1.0" encoding="UTF-8"?>
<svg width="41px" height="41px" viewBox="0 0 41 41" version="1.1" xmlns="http://www.w3.org/2000/svg" xmlns:xlink="http://www.w3.org/1999/xlink">
    <!-- Generator: Sketch 49.2 (51160) - http://www.bohemiancoding.com/sketch -->
    <title>login copy</title>
    <desc>Created with Sketch.</desc>
    <defs></defs>
    <g id="Dashboard" stroke="none" stroke-width="1" fill="none" fill-rule="evenodd">
        <g id="login-copy" fill="#FFFFFF" fill-rule="nonzero">
            <path d="M0,19.9969391 C0,20.7723614 0.63016926,21.4008616 1.40765082,21.4008616 L28.2184884,21.4008616 L22.988902,26.6084344 C22.4405729,27.1553112 22.4405729,28.0450062 22.988902,28.591883 C23.2589745,28.8612402 23.6190712,29 23.979168,29 C24.3392647,29 24.6993614,28.8612402 24.9694339,28.591883 L32.5887532,20.9927446 C33.1370823,20.4458678 33.1370823,19.5561728 32.5887532,19.009296 L24.9694339,11.4101576 C24.4211048,10.8632808 23.5290471,10.8632808 22.980718,11.4101576 C22.4323889,11.9570343 22.4323889,12.8467294 22.980718,13.3936062 L28.2021204,18.601179 L1.40765082,18.601179 C0.63016926,18.601179 0,19.2215168 0,19.9969391 Z" id="Shape"></path>
            <path d="M32.6008996,41 C37.2379881,41 41,37.1371347 41,32.3860617 L41,8.61393828 C41,3.86286532 37.2298099,0 32.6008996,0 L9.39910039,0 C4.76201186,0 1,3.86286532 1,8.61393828 L1,13.4990803 C1,14.2951155 1.62972807,14.9319436 2.39848702,14.9319436 C3.17542425,14.9319436 3.80515232,14.2867362 3.80515232,13.4990803 L3.80515232,8.61393828 C3.80515232,5.45493562 6.31588632,2.87410587 9.39910039,2.87410587 L32.6008996,2.87410587 C35.6841137,2.87410587 38.1948477,5.4465563 38.1948477,8.61393828 L38.1948477,32.3860617 C38.1948477,35.5450644 35.6841137,38.1258941 32.6008996,38.1258941 L9.39910039,38.1258941 C6.31588632,38.1258941 3.80515232,35.5534437 3.80515232,32.3860617 L3.80515232,27.5595749 C3.80515232,26.7635398 3.17542425,26.1183323 2.39848702,26.1183323 C1.62154979,26.1183323 1,26.7635398 1,27.5595749 L1,32.3860617 C1,37.1371347 4.77019015,41 9.39910039,41 L32.6008996,41 Z" id="Shape"></path>
        </g>
    </g>
</svg>