<?xml version="1.0" encoding="UTF-8"?>
<svg width="32px" height="30px" viewBox="0 0 32 30" version="1.1" xmlns="http://www.w3.org/2000/svg" xmlns:xlink="http://www.w3.org/1999/xlink">
    <!-- Generator: Sketch 48.1 (47250) - http://www.bohemiancoding.com/sketch -->
    <title>parraine</title>
    <desc>Created with Sketch.</desc>
    <defs></defs>
    <g id="Good-sizing" stroke="none" stroke-width="1" fill="none" fill-rule="evenodd" transform="translate(-812.000000, -278.000000)">
        <g id="parraine" transform="translate(812.000000, 278.000000)" fill="#575757">
            <g id="002-add-friend-copy-7">
                <path d="M30.076892,17.5449382 C28.9792844,16.5127941 27.5286739,15.8842197 25.9889354,15.7514407 C27.3181354,14.6368821 28.1567806,13.0278361 28.1567806,11.2304141 C28.1567806,7.86776984 25.2331021,5.14285714 21.6244716,5.14285714 C18.1779558,5.14285714 15.3560376,7.63099154 15.1111111,10.7843291 C18.177254,12.0205473 20.3289578,14.8684277 20.3289578,18.1748208 C20.3289578,19.3822593 20.0342039,20.5622263 19.4861019,21.6329613 C20.2756214,22.0175625 21.0033829,22.5146661 21.6378057,23.1111905 C23.2645668,24.6378218 24.188831,26.7485499 24.1712861,28.9004853 L24.1698825,28.9443089 L24.1684789,28.9815917 L24.1109317,30 L31.9352455,30 L31.9998106,21.935148 C32.0131447,20.2901275 31.3218765,18.7124776 30.076892,17.5449382 Z" id="Shape" fill-rule="nonzero"></path>
                <path d="M16.0894276,22.6615789 C17.4446753,21.5422479 18.3030705,19.9247061 18.3030705,18.1185277 C18.3030705,14.7388447 15.3190913,12 11.6385163,12 C7.95722529,12 4.97396207,14.7388447 4.97396207,18.1185277 C4.97396207,19.9214197 5.82877759,21.537647 7.18187754,22.6576353 C3.71679619,22.9041116 0.979811478,25.5384503 0.954754072,28.7820784 L0.888888889,30 L11.0213881,30 L22.1561837,30 L22.2220488,28.873439 C22.2349355,27.2210619 21.5290326,25.6357263 20.2596959,24.4624991 C19.138556,23.4246695 17.6594531,22.7950047 16.0894276,22.6615789 Z" id="Shape" fill-rule="nonzero"></path>
                <path d="M4.02246959,7.23239133 L4.02246959,9.46638948 C4.02246959,10.3915154 4.8023088,11.1428571 5.76236858,11.1428571 C6.7237683,11.1428571 7.50226757,10.3915154 7.50226757,9.46638948 L7.50226757,7.23239133 L9.81632653,7.23239133 C10.7763863,7.23239133 11.5555556,6.48040353 11.5555556,5.55463159 C11.5555556,4.6295057 10.7763863,3.87751789 9.81632653,3.87751789 L7.50226757,3.87751789 L7.50226757,1.67646766 C7.50226757,0.750695733 6.7237683,0 5.76236858,0 C4.8023088,0 4.02246959,0.750695733 4.02246959,1.67646766 L4.02246959,3.87687185 L1.73922902,3.87687185 C0.777829314,3.87687185 0,4.62885966 0,5.55398556 C0,6.47975749 0.777829314,7.2317453 1.73922902,7.2317453 L4.02246959,7.2317453 L4.02246959,7.23239133 Z" id="Shape" fill-rule="nonzero"></path>
            </g>
        </g>
    </g>
</svg>